<?xml version="1.0" encoding="iso-8859-1"?>
<!-- Generator: Adobe Illustrator 19.0.0, SVG Export Plug-In . SVG Version: 6.00 Build 0)  -->
<svg version="1.1" id="Capa_1" xmlns="http://www.w3.org/2000/svg" xmlns:xlink="http://www.w3.org/1999/xlink" x="0px" y="0px"
	 viewBox="0 0 511.766 511.766" style="enable-background:new 0 0 511.766 511.766;" xml:space="preserve">
<g>
	<g>
		<path d="M330.786,340.56l-33.329-188.995c-0.382-2.175-2.483-3.658-4.63-3.241c-2.179,0.382-3.632,2.455-3.241,4.63
			l33.328,188.996c0.336,1.937,2.024,3.295,3.929,3.295c0.234,0,0.468-0.015,0.702-0.062
			C329.717,344.808,331.169,342.731,330.786,340.56z"/>
	</g>
</g>
<g>
	<g>
		<path d="M334.957,364.189c-5.833-33.063-144.681-37.904-172.457-38.545c-2.257,0.047-4.037,1.702-4.088,3.913
			c-0.051,2.209,1.698,4.037,3.908,4.084c61.772,1.421,161.125,11.338,164.765,31.938c0.335,1.938,2.023,3.296,3.928,3.296
			c0.234,0,0.468-0.015,0.703-0.063C333.888,368.437,335.34,366.36,334.957,364.189z"/>
	</g>
</g>
<g>
	<g>
		<path d="M293.303,127.935c-0.382-2.175-2.459-3.631-4.63-3.241c-2.179,0.382-3.632,2.455-3.241,4.63
			c6.309,35.828-101.481,74.393-143.548,86.227c-2.128,0.598-3.366,2.807-2.768,4.931c0.496,1.766,2.101,2.917,3.846,2.917
			c0.359,0,0.726-0.047,1.085-0.148c0.39-0.109,39.396-11.151,76.871-27.866C272.758,172.266,297.115,149.574,293.303,127.935z"/>
	</g>
</g>
<g>
	<g>
		<path d="M309.046,125.154c-0.383-2.178-2.452-3.638-4.631-3.24l-15.742,2.78c-2.179,0.382-3.632,2.455-3.241,4.63
			c0.336,1.941,2.023,3.304,3.928,3.304c0.234,0,0.468-0.019,0.703-0.063l15.743-2.78
			C307.977,129.402,309.429,127.329,309.046,125.154z"/>
	</g>
</g>
<g>
	<g>
		<path d="M350.699,361.409l-41.653-236.255c-0.383-2.178-2.452-3.638-4.631-3.24c-2.178,0.383-3.631,2.456-3.24,4.631
			L342.827,362.8c0.336,1.937,2.023,3.295,3.929,3.295c0.233,0,0.468-0.016,0.702-0.063
			C349.629,365.657,351.082,363.581,350.699,361.409z"/>
	</g>
</g>
<g>
	<g>
		<path d="M350.699,361.409c-0.383-2.178-2.484-3.654-4.631-3.248l-15.743,2.78c-2.178,0.39-3.631,2.46-3.24,4.638
			c0.335,1.938,2.023,3.296,3.928,3.296c0.234,0,0.468-0.015,0.702-0.063l15.743-2.78
			C349.629,365.657,351.082,363.581,350.699,361.409z"/>
	</g>
</g>
<g>
	<g>
		<path d="M166.346,328.956c-0.383-2.187-2.448-3.639-4.631-3.249L79.03,340.294L60.972,237.927l82.689-14.591
			c2.174-0.382,3.627-2.455,3.24-4.63c-0.383-2.179-2.48-3.651-4.631-3.241l-86.624,15.282c-2.175,0.383-3.628,2.456-3.241,4.631
			L71.849,345.62c0.34,1.937,2.026,3.295,3.932,3.295c0.23,0,0.465-0.015,0.699-0.063l86.625-15.273
			C165.28,333.204,166.733,331.127,166.346,328.956z"/>
	</g>
</g>
<g>
	<g>
		<path d="M79.721,344.229L60.277,233.987c-0.215-1.233-1-2.296-2.12-2.865c-1.117-0.578-2.44-0.59-3.565-0.035L2.249,256.552
			c-1.605,0.78-2.499,2.533-2.187,4.291l13.884,78.749c0.308,1.749,1.745,3.091,3.522,3.279l57.903,6.028
			c0.137,0.016,0.277,0.016,0.414,0.016c1.105,0,2.167-0.452,2.925-1.265C79.565,346.729,79.94,345.463,79.721,344.229z
			 M21.295,335.227L8.461,262.424l44.862-21.826l17.606,99.798L21.295,335.227z"/>
	</g>
</g>
<g>
	<g>
		<path d="M163.566,313.214l-13.884-78.757c-0.379-2.175-2.472-3.655-4.631-3.241c-2.175,0.383-3.627,2.456-3.241,4.631
			l13.884,78.756c0.34,1.938,2.027,3.296,3.932,3.296c0.23,0,0.465-0.016,0.7-0.062
			C162.501,317.462,163.953,315.385,163.566,313.214z"/>
	</g>
</g>
<g>
	<g>
		<path d="M48.274,259.17c-1.05-1.935-3.482-2.658-5.419-1.608l-22.24,12.046c-1.94,1.046-2.662,3.467-1.608,5.419
			c0.723,1.327,2.097,2.093,3.518,2.093c0.644,0,1.296-0.156,1.901-0.485l22.24-12.041C48.606,263.539,49.329,261.115,48.274,259.17
			z"/>
	</g>
</g>
<g>
	<g>
		<path d="M56.45,320.117l-25.012-3.701c-2.179-0.297-4.217,1.186-4.541,3.373c-0.324,2.186,1.187,4.217,3.37,4.537l25.012,3.701
			c0.199,0.023,0.395,0.039,0.59,0.039c1.948,0,3.658-1.421,3.951-3.404C60.144,322.475,58.633,320.445,56.45,320.117z"/>
	</g>
</g>
<g>
	<g>
		<path d="M54.248,291.879c-0.382-2.17-2.459-3.63-4.63-3.232l-23.622,4.154c-2.175,0.39-3.627,2.46-3.241,4.638
			c0.34,1.938,2.026,3.296,3.932,3.296c0.23,0,0.464-0.016,0.698-0.063l23.622-4.154C53.182,296.127,54.634,294.058,54.248,291.879z
			"/>
	</g>
</g>
<g>
	<g>
		<path d="M83.211,225.874c-0.383-2.175-2.464-3.655-4.631-3.241l-15.75,2.78c-2.175,0.383-3.628,2.456-3.241,4.631
			c0.34,1.94,2.027,3.303,3.932,3.303c0.231,0,0.465-0.019,0.699-0.062l15.75-2.78C82.145,230.122,83.598,228.049,83.211,225.874z"
			/>
	</g>
</g>
<g>
	<g>
		<path d="M197.538,460.505l-40.287-90.334c-0.893-2.013-3.259-2.935-5.278-2.021c-2.018,0.897-2.924,3.263-2.022,5.278
			l40.286,90.333c0.663,1.492,2.124,2.367,3.654,2.367c0.543,0,1.097-0.109,1.624-0.344
			C197.534,464.886,198.44,462.52,197.538,460.505z"/>
	</g>
</g>
<g>
	<g>
		<path d="M150.286,468.837L110,378.503c-0.894-2.005-3.26-2.927-5.279-2.021c-2.018,0.897-2.924,3.263-2.022,5.278l40.286,90.334
			c0.664,1.483,2.124,2.374,3.654,2.374c0.543,0,1.098-0.109,1.625-0.352C150.282,473.218,151.188,470.852,150.286,468.837z"/>
	</g>
</g>
<g>
	<g>
		<path d="M205.694,460.052c-0.382-2.179-2.451-3.654-4.63-3.248l-63.003,11.12c-2.175,0.374-3.627,2.452-3.24,4.622
			c0.34,1.946,2.027,3.312,3.932,3.312c0.23,0,0.464-0.024,0.698-0.063l63.002-11.12C204.628,464.3,206.08,462.223,205.694,460.052z
			"/>
	</g>
</g>
<g>
	<g>
		<path d="M91.763,366.469l-1.562-8.855c-0.383-2.179-2.468-3.67-4.631-3.248c-2.175,0.391-3.628,2.46-3.241,4.639l1.562,8.855
			c0.34,1.937,2.027,3.295,3.932,3.295c0.23,0,0.464-0.015,0.699-0.063C90.697,370.717,92.15,368.64,91.763,366.469z"/>
	</g>
</g>
<g>
	<g>
		<path d="M170.558,352.842c-0.375-2.178-2.436-3.631-4.623-3.256l-78.792,13.635c-2.175,0.375-3.631,2.443-3.256,4.623
			c0.336,1.945,2.027,3.311,3.936,3.311c0.227,0,0.456-0.015,0.687-0.055l78.792-13.635
			C169.476,357.09,170.933,355.022,170.558,352.842z"/>
	</g>
</g>
<g>
	<g>
		<path d="M170.554,352.835l-1.39-7.887c-0.379-2.17-2.484-3.63-4.631-3.232c-2.175,0.375-3.627,2.452-3.241,4.623l1.391,7.887
			c0.34,1.937,2.027,3.295,3.932,3.295c0.23,0,0.465-0.016,0.698-0.063C169.488,357.083,170.941,355.007,170.554,352.835z"/>
	</g>
</g>
<g>
	<g>
		<path d="M363.819,84.032h-0.078c-2.211,0-3.96,1.789-3.96,3.999c0,2.21,1.835,3.998,4.038,3.998c2.209,0,3.998-1.788,3.998-3.998
			C367.817,85.821,366.028,84.032,363.819,84.032z"/>
	</g>
</g>
<g>
	<g>
		<path d="M387.807,84.032h-0.078c-2.21,0-3.959,1.789-3.959,3.999c0,2.21,1.835,3.998,4.037,3.998c2.21,0,3.998-1.788,3.998-3.998
			C391.805,85.821,390.017,84.032,387.807,84.032z"/>
	</g>
</g>
<g>
	<g>
		<path d="M427.555,323.926c-28.66,0-51.977,23.318-51.977,51.977s23.318,51.977,51.977,51.977
			c28.658,0,51.975-23.318,51.976-51.977C479.531,347.243,456.213,323.926,427.555,323.926z M427.555,419.882
			c-24.254,0-43.98-19.733-43.98-43.979c0-24.254,19.725-43.98,43.98-43.98c24.246,0,43.979,19.726,43.979,43.98
			C471.534,400.149,451.801,419.882,427.555,419.882z"/>
	</g>
</g>
<g>
	<g>
		<path d="M375.578,60.045c-22.044,0-39.981,17.937-39.981,39.981s17.936,39.981,39.981,39.981s39.982-17.937,39.981-39.981
			C415.559,77.982,397.622,60.045,375.578,60.045z M375.578,132.01c-17.64,0-31.985-14.349-31.985-31.985
			s14.344-31.985,31.985-31.985c17.633,0,31.985,14.349,31.985,31.985C407.563,117.661,393.211,132.01,375.578,132.01z"/>
	</g>
</g>
<g>
	<g>
		<path d="M439.799,156c-39.686,0-71.967,32.286-71.967,71.967c0,39.681,32.281,71.972,71.967,71.972
			c39.677,0,71.967-32.291,71.967-71.972S479.476,156,439.799,156z M439.799,291.942c-35.274,0-63.971-28.702-63.971-63.975
			c0-35.273,28.698-63.971,63.971-63.971c35.272,0,63.971,28.698,63.971,63.971S475.071,291.942,439.799,291.942z"/>
	</g>
</g>
<g>
	<g>
		<path d="M438.205,354.569c-3.943,0-7.652,1.319-10.658,3.701c-3.014-2.382-6.723-3.701-10.66-3.701
			c-9.549,0-17.319,7.777-17.319,17.336c0,21.006,25.285,32.492,26.362,32.969c0.516,0.235,1.07,0.344,1.625,0.344
			c0.554,0,1.108-0.109,1.624-0.344c1.077-0.477,26.362-11.963,26.362-32.969C455.541,362.346,447.764,354.569,438.205,354.569z
			 M427.547,396.761c-5.037-2.631-19.983-11.587-19.983-24.855c0-5.147,4.177-9.34,9.323-9.34c2.944,0,5.662,1.389,7.458,3.811
			c0.758,1.007,1.944,1.609,3.21,1.609c0,0,0,0,0.008,0c1.264,0,2.451-0.609,3.201-1.625c1.788-2.405,4.498-3.795,7.441-3.795
			c5.147,0,9.34,4.194,9.34,9.34C447.545,385.118,432.575,394.114,427.547,396.761z"/>
	</g>
</g>
<g>
	<g>
		<path d="M470.613,213.145c-0.75-0.749-1.765-1.171-2.827-1.171h-3.999v-19.991c0-2.21-1.787-3.998-3.998-3.998h-7.996
			c-1.624,0-3.092,0.988-3.701,2.491c-0.062,0.152-6.255,15.188-14.868,22.435c-8.035,6.759-13.447,7.06-13.416,7.06
			c-2.21,0-3.998,1.788-3.998,3.998v23.989c0,2.21,1.788,3.998,3.998,3.998h6.341l6.825,6.825c0.75,0.749,1.765,1.171,2.827,1.171
			h31.985c1.062,0,2.077-0.422,2.827-1.171C480.21,249.183,480.21,222.742,470.613,213.145z M465.943,251.956h-28.487l-6.825-6.825
			c-0.75-0.749-1.764-1.171-2.826-1.171h-3.999V227.3c3.303-0.921,8.425-3.104,14.571-8.27c7.895-6.649,13.705-18.019,16.024-23.048
			h1.39v19.991c0,2.21,1.789,3.998,3.998,3.998h6.154C471.042,227.069,471.042,244.857,465.943,251.956z"/>
	</g>
</g>
<g>
	<g>
		<path d="M419.808,211.974h-23.989c-2.209,0-3.998,1.789-3.998,3.999v39.981c0,2.21,1.789,3.998,3.998,3.998h23.989
			c2.21,0,3.998-1.788,3.998-3.998v-39.981C423.806,213.763,422.018,211.974,419.808,211.974z M415.81,251.956h-15.993v-31.985
			h15.993V251.956z"/>
	</g>
</g>
<g>
	<g>
		<path d="M387.697,108.096c-1.866,0.059-3.982,1.66-4.123,3.811c-0.047,0.683-0.641,4.111-7.996,4.111
			c-7.302,0-7.949-3.374-7.996-4.096c-0.055-2.163-1.828-3.901-3.998-3.901c-2.211,0-3.998,1.789-3.998,3.999
			c0,4.151,3.342,11.995,15.992,11.995c12.651,0,15.993-7.844,15.992-11.995C391.57,109.861,389.852,108.166,387.697,108.096z"/>
	</g>
</g>
<g>
	<g>
		<path d="M479.78,35.907c-17.64,0-31.985,14.349-31.985,31.985s14.344,31.985,31.985,31.985c17.633,0,31.986-14.349,31.985-31.985
			C511.765,50.256,497.413,35.907,479.78,35.907z M479.78,91.881c-13.228,0-23.989-10.76-23.989-23.989s10.76-23.989,23.989-23.989
			s23.989,10.761,23.989,23.989C503.769,81.12,493.008,91.881,479.78,91.881z"/>
	</g>
</g>
<g>
	<g>
		<path d="M507.767,79.886c-2.21,0-3.998,1.789-3.998,3.999c0,13.228-10.761,23.989-23.989,23.989s-23.989-10.761-23.989-23.989
			c0-2.21-1.788-3.999-3.998-3.999c-2.21,0-3.998,1.789-3.998,3.999c0,17.636,14.344,31.985,31.985,31.985
			c17.633,0,31.986-14.349,31.985-31.985C511.765,81.675,509.977,79.886,507.767,79.886z"/>
	</g>
</g>
<g>
	<g>
		<path d="M479.78,51.9c-2.21,0-3.998,1.788-3.998,3.998v23.988c0,2.21,1.788,3.999,3.998,3.999c2.21,0,3.999-1.789,3.998-3.998
			V55.898C483.778,53.688,481.99,51.9,479.78,51.9z"/>
	</g>
</g>
<g>
	<g>
		<path d="M491.775,63.894l-23.989-0.008c-2.21,0-3.999,1.788-3.999,3.998c0,2.206,1.789,3.998,3.999,3.998l23.99,0.008
			c2.201,0,3.998-1.788,3.997-3.998C495.773,65.686,493.984,63.894,491.775,63.894z"/>
	</g>
</g>
<g>
	<g>
		<path d="M451.793,63.894c-2.21,0-3.998,1.788-3.998,3.998v15.993c0,2.209,1.788,3.998,3.998,3.998c2.21,0,3.998-1.789,3.998-3.998
			V67.892C455.791,65.682,454.003,63.894,451.793,63.894z"/>
	</g>
</g>
<g>
	<g>
		<path d="M507.768,63.894c-2.21,0-3.998,1.788-3.998,3.998v15.993c0,2.209,1.788,3.998,3.998,3.998c2.21,0,3.998-1.789,3.998-3.998
			V67.892C511.766,65.682,509.978,63.894,507.768,63.894z"/>
	</g>
</g>
<g>
</g>
<g>
</g>
<g>
</g>
<g>
</g>
<g>
</g>
<g>
</g>
<g>
</g>
<g>
</g>
<g>
</g>
<g>
</g>
<g>
</g>
<g>
</g>
<g>
</g>
<g>
</g>
<g>
</g>
</svg>
